<?xml version="1.0" encoding="UTF-8" standalone="no"?>
<!-- Created with Inkscape (http://www.inkscape.org/) -->

<svg
   width="528mm"
   height="297mm"
   viewBox="0 0 528 297"
   version="1.1"
   id="svg1"
   xml:space="preserve"
   xmlns="http://www.w3.org/2000/svg"
   xmlns:svg="http://www.w3.org/2000/svg"><defs
     id="defs1"><clipPath
       id="clip1-5"><path
         d="m 358,395 h 362 v 10.12109 H 358 Z m 0,0"
         id="path3-4" /></clipPath><clipPath
       id="clip2-7"><path
         d="m 538,395 h 182 v 10.12109 H 538 Z m 0,0"
         id="path4-4" /></clipPath><clipPath
       id="clip3-4"><path
         d="m 0,395 h 360 v 10.12109 H 0 Z m 0,0"
         id="path5-3" /></clipPath></defs><g
     clip-path="url(#clip1-5)"
     clip-rule="nonzero"
     id="g8"
     transform="matrix(0.73311412,0,0,0.73311412,0.15784326,0)"
     style="fill:#006778;fill-opacity:1;stroke:none"><path
       style="fill:#006778;fill-opacity:1;fill-rule:evenodd;stroke:none"
       d="M 358.80078,405.12109 H 720 v -9.83984 H 358.80078 Z m 0,0"
       id="path8-8" /></g><g
     clip-path="url(#clip2-7)"
     clip-rule="nonzero"
     id="g9"
     transform="matrix(0.73311412,0,0,0.73311412,0.15784326,0)"
     style="fill:#7dc242;fill-opacity:1;stroke:none;stroke-opacity:0"><path
       style="fill:#7dc242;fill-opacity:1;fill-rule:evenodd;stroke:none;stroke-opacity:0"
       d="M 538.07812,405.12109 H 720 v -9.83984 H 538.07812 Z m 0,0"
       id="path9" /></g><g
     clip-path="url(#clip3-4)"
     clip-rule="nonzero"
     id="g10"
     transform="matrix(0.73355345,0,0,0.73311412,3.2626282e-6,0)"
     style="fill:#830051;fill-opacity:1;stroke:none"><path
       style="fill:#830051;fill-opacity:1;fill-rule:evenodd;stroke:none"
       d="m 0,405.12109 h 359.28125 v -9.83984 H 0 Z m 0,0"
       id="path10" /></g><g
     id="surface1941090"
     transform="matrix(0.0533687,0,0,0.0533687,483.48649,9.7440462)"><path
       style="fill:#02596e;fill-opacity:1;fill-rule:nonzero;stroke:none"
       d="m 365.375,366.48828 c 0,-0.008 -6.61719,-1.03906 -6.75391,-4.12891 -6.00781,-135.19921 -18.40234,-129.94921 -278.289059,-135.19921 -4.878906,-0.10547 -6.761719,-7.14063 -6.761719,-7.14063 H 365.375 Z m 0,0"
       id="path1-6" /><path
       style="fill:#82054a;fill-opacity:1;fill-rule:nonzero;stroke:none"
       d="m 363.125,73.554688 c 0,0.0078 6.625,1.039062 6.76172,4.132812 6.01172,135.19922 18.40234,129.94531 278.28515,135.19922 4.89063,0.0977 6.76172,7.13672 6.76172,7.13672 H 363.125 Z m 0,0"
       id="path2-8" /><path
       style="fill:#454f59;fill-opacity:1;fill-rule:nonzero;stroke:none"
       d="m 448.14844,398.70703 -0.6836,-0.41016 c -0.20312,0.20704 -0.61328,0.47266 -1.08593,0.47266 -0.6211,0 -2.1211,-1.28906 -4.64063,-2.66016 -2.52734,-1.35937 -6.14062,-2.65625 -11.12109,-2.65625 -14.8711,0 -22.92188,12.27735 -22.92188,25.50391 0,13.23047 8.05078,25.51172 22.65235,25.51172 11.45703,0 14.66015,-6.41016 17.52343,-6.41016 0.27735,0 0.47657,0.13282 0.61719,0.13282 l 0.53906,-0.26954 -6.07031,-8.32421 -0.67969,0.41406 c 0.0703,0.33594 0.13672,0.68359 0.13672,1.01953 0,3.33984 -5.86328,6.75 -11.51953,6.61719 -10.77734,-0.20703 -15.14844,-9.27735 -15.14844,-18.82813 0,-9.41015 4.63672,-18.54687 14.94141,-18.54687 5.46094,0 11.05078,2.86718 11.05078,5.51953 0,0.61328 0.12891,1.02344 0,1.29687 l 0.81641,0.34375 z m -105.92188,39.96875 0.81641,0.33203 c 0.27344,-0.33203 0.6875,-0.47265 1.02734,-0.53906 0.75,-0.0703 6.27344,6 18.96094,6 10.77344,0 18.14062,-6.21094 18.14062,-15.41406 0,-20.25391 -29.53125,-10.375 -29.53125,-21.41407 0,-4.23046 2.51954,-7.36718 10.23047,-7.36718 5.9961,0 13.08985,2.58984 13.08985,6.21093 0,0.26563 0,0.53907 -0.0664,0.74219 l 0.88672,0.41406 4.77344,-10.30078 -0.67969,-0.26953 c -0.54688,0.60938 -1.16406,0.75 -1.56641,0.75 -0.8164,0 -2.32031,-1.09765 -4.84765,-2.18359 -2.51953,-1.09375 -6.06641,-2.1836 -11.1836,-2.1836 -10.77734,0 -18.41406,5.1836 -18.41406,14.45313 0,19.44922 29.26172,9.14844 29.26172,21.5625 0,5.65625 -4.09766,8.17969 -10.03125,8.17969 -6.88281,0 -15.20703,-3.82032 -15.20703,-7.4375 0,-0.33985 0,-0.67188 0.0664,-1.01953 l -0.7539,-0.41407 z m -26.66797,-39.96875 -0.67968,-0.41016 c -0.20704,0.20704 -0.61719,0.47266 -1.08985,0.47266 -0.61719,0 -2.11719,-1.28906 -4.63672,-2.66016 -2.53125,-1.35937 -6.14453,-2.65625 -11.12109,-2.65625 -14.86719,0 -22.91797,12.27735 -22.91797,25.50391 0,13.23047 8.05078,25.51172 22.64844,25.51172 11.45312,0 14.66015,-6.41016 17.51953,-6.41016 0.27734,0 0.48437,0.13282 0.62109,0.13282 l 0.55078,-0.26954 -6.07812,-8.32421 -0.68359,0.41406 c 0.0664,0.33594 0.14062,0.68359 0.14062,1.01953 0,3.33984 -5.86328,6.75 -11.53125,6.61719 -10.77344,-0.20703 -15.13672,-9.27735 -15.13672,-18.82813 0,-9.41015 4.63672,-18.54687 14.9375,-18.54687 5.45703,0 11.05078,2.86718 11.05078,5.51953 0,0.61328 0.13282,1.02344 0,1.29687 l 0.81641,0.34375 z m 0,0"
       id="path3-8" /></g></svg>
